<svg width="614" height="614" viewBox="0 0 614 614" fill="none" xmlns="http://www.w3.org/2000/svg">
<g clip-path="url(#clip0_1540_455)">
<path d="M454.569 260.109L312.205 177.519C308.076 175.128 302.976 175.128 298.823 177.519L156.434 260.109C152.306 262.5 149.756 266.941 149.756 271.748V436.904C149.756 441.711 152.306 446.152 156.434 448.543L204.715 475.577L212.608 524.936C213.166 528.498 216.226 531.133 219.796 531.133H242.14C246.171 531.133 249.425 527.864 249.425 523.814V517.86C249.425 514.274 251.83 510.955 255.351 510.297C259.965 509.467 263.997 513.005 263.997 517.494V523.814C263.997 527.864 267.251 531.133 271.283 531.133H290.129C294.16 531.133 297.414 527.864 297.414 523.814V517.86C297.414 514.274 299.819 510.955 303.34 510.297C307.955 509.467 311.986 513.005 311.986 517.494V523.814C311.986 527.864 315.24 531.133 319.272 531.133H338.118C342.149 531.133 345.403 527.864 345.403 523.814V517.86C345.403 514.274 347.808 510.955 351.329 510.297C355.944 509.467 359.975 513.005 359.975 517.494V523.814C359.975 527.864 363.229 531.133 367.261 531.133H391.207C394.801 531.133 397.861 528.498 398.395 524.936L406.094 475.43L454.545 448.543C458.673 446.152 461.223 441.711 461.223 436.904V271.723C461.223 266.917 458.673 262.476 454.545 260.085L454.569 260.109ZM221.909 444.615C188.54 444.615 161.51 417.434 161.51 383.934C161.51 350.434 188.565 323.254 221.909 323.254C255.254 323.254 282.309 350.434 282.309 383.934C282.309 417.434 255.254 444.615 221.909 444.615ZM298.362 493.193V465.427H269.607L312.18 413.774V441.54H340.935L298.362 493.193ZM389.118 444.615C355.749 444.615 328.719 417.434 328.719 383.934C328.719 350.434 355.774 323.254 389.118 323.254C422.463 323.254 449.517 350.434 449.517 383.934C449.517 417.434 422.487 444.615 389.118 444.615Z" fill="#D9D9D9"/>
</g>
<defs>
<clipPath id="clip0_1540_455">
<rect width="311.492" height="355.42" fill="white" transform="translate(149.756 175.713)"/>
</clipPath>
</defs>
</svg>
