<svg width="690" height="660" viewBox="0 0 690 660" fill="none" xmlns="http://www.w3.org/2000/svg">
<circle cx="344.831" cy="330" r="93.9326" fill="black" stroke="black" stroke-width="14.8315"/>
<circle cx="344.832" cy="322.584" r="265.73" stroke="black" stroke-width="2.47191" stroke-dasharray="4.94 4.94"/>
<path d="M409.101 71.0674C409.101 106.161 380.387 134.719 344.831 134.719C309.276 134.719 280.562 106.161 280.562 71.0674C280.562 35.974 309.276 7.41573 344.831 7.41573C380.387 7.41573 409.101 35.974 409.101 71.0674Z" fill="#D9D9D9" stroke="black" stroke-width="14.8315"/>
<path d="M409.101 588.933C409.101 624.026 380.387 652.584 344.831 652.584C309.276 652.584 280.562 624.026 280.562 588.933C280.562 553.839 309.276 525.281 344.831 525.281C380.387 525.281 409.101 553.839 409.101 588.933Z" fill="#D9D9D9" stroke="black" stroke-width="14.8315"/>
<circle cx="160.056" cy="157.584" r="63.6517" fill="#D9D9D9" stroke="black" stroke-width="14.8315"/>
<path d="M223.708 501.798C223.708 537.354 195.15 566.067 160.056 566.067C124.963 566.067 96.4045 537.354 96.4045 501.798C96.4045 466.242 124.963 437.528 160.056 437.528C195.15 437.528 223.708 466.242 223.708 501.798Z" fill="#D9D9D9" stroke="black" stroke-width="14.8315"/>
<circle cx="71.0674" cy="329.382" r="63.6517" fill="#D9D9D9" stroke="black" stroke-width="14.8315"/>
<circle cx="618.595" cy="329.382" r="63.6517" fill="#D9D9D9" stroke="black" stroke-width="14.8315"/>
<path d="M594.494 157.584C594.494 192.678 565.781 221.236 530.225 221.236C494.669 221.236 465.955 192.678 465.955 157.584C465.955 122.491 494.669 93.9326 530.225 93.9326C565.781 93.9326 594.494 122.491 594.494 157.584Z" fill="#D9D9D9" stroke="black" stroke-width="14.8315"/>
<circle cx="530.225" cy="501.798" r="64.2697" fill="#D9D9D9" stroke="black" stroke-width="14.8315"/>
<path d="M329.344 325.225V314.843H335.826V315.999H330.59V319.618H335.069V320.731H330.59V325.225H329.344ZM338.356 325.225V324.142H340.714V315.925H338.356V314.843H344.318V315.925H341.96V324.142H344.318V325.225H338.356ZM346.626 325.225V314.843H347.902L352.618 323.044V314.843H353.849V325.225H352.559L347.842 317.023V325.225H346.626ZM355.653 325.225V314.843H357.833C359.534 314.843 360.789 315.307 361.6 316.237C362.421 317.166 362.831 318.432 362.831 320.034C362.831 321.635 362.421 322.901 361.6 323.83C360.789 324.76 359.534 325.225 357.833 325.225H355.653ZM356.899 324.083H357.803C358.713 324.083 359.44 323.914 359.984 323.578C360.537 323.242 360.938 322.772 361.185 322.169C361.432 321.566 361.556 320.854 361.556 320.034C361.556 319.213 361.432 318.501 361.185 317.898C360.938 317.295 360.537 316.825 359.984 316.489C359.44 316.153 358.713 315.985 357.803 315.985H356.899V324.083ZM309.588 344.225V340.146L306.222 333.843H307.631L310.211 338.885L312.792 333.843H314.201L310.834 340.146V344.225H309.588ZM319.104 344.403C318.264 344.403 317.542 344.18 316.939 343.735C316.336 343.29 315.871 342.667 315.545 341.866C315.228 341.056 315.07 340.111 315.07 339.034C315.07 337.956 315.228 337.017 315.545 336.216C315.871 335.405 316.336 334.777 316.939 334.332C317.542 333.887 318.264 333.665 319.104 333.665C319.945 333.665 320.667 333.887 321.27 334.332C321.873 334.777 322.333 335.405 322.649 336.216C322.975 337.017 323.139 337.956 323.139 339.034C323.139 340.111 322.975 341.056 322.649 341.866C322.333 342.667 321.873 343.29 321.27 343.735C320.667 344.18 319.945 344.403 319.104 344.403ZM319.104 343.231C319.925 343.231 320.588 342.865 321.092 342.133C321.606 341.402 321.863 340.368 321.863 339.034C321.863 337.699 321.606 336.666 321.092 335.934C320.588 335.202 319.925 334.836 319.104 334.836C318.274 334.836 317.606 335.202 317.102 335.934C316.598 336.666 316.346 337.699 316.346 339.034C316.346 340.368 316.598 341.402 317.102 342.133C317.606 342.865 318.274 343.231 319.104 343.231ZM327.983 344.403C327.291 344.403 326.673 344.259 326.129 343.972C325.595 343.686 325.17 343.251 324.853 342.667C324.547 342.074 324.393 341.332 324.393 340.443V333.843H325.639V340.487C325.639 341.377 325.857 342.064 326.292 342.549C326.727 343.033 327.3 343.275 328.012 343.275C328.724 343.275 329.293 343.033 329.718 342.549C330.143 342.064 330.356 341.377 330.356 340.487V333.843H331.602V340.443C331.602 341.332 331.443 342.074 331.127 342.667C330.811 343.251 330.38 343.686 329.837 343.972C329.293 344.259 328.675 344.403 327.983 344.403ZM333.657 344.225V333.843H336.846C337.647 333.843 338.305 333.976 338.819 334.243C339.343 334.51 339.733 334.876 339.99 335.341C340.247 335.795 340.376 336.314 340.376 336.898C340.376 337.58 340.198 338.183 339.842 338.707C339.496 339.221 338.962 339.582 338.24 339.79L340.495 344.225H339.011L336.92 339.968H336.846H334.903V344.225H333.657ZM334.903 338.826H336.802C337.593 338.826 338.171 338.648 338.537 338.292C338.913 337.926 339.1 337.461 339.1 336.898C339.1 336.305 338.918 335.835 338.552 335.489C338.196 335.143 337.607 334.97 336.787 334.97H334.903V338.826ZM354.781 344.403C354.049 344.403 353.411 344.264 352.867 343.987C352.333 343.71 351.918 343.325 351.621 342.83C351.335 342.336 351.186 341.758 351.177 341.095H352.482C352.492 341.688 352.689 342.203 353.075 342.638C353.47 343.063 354.039 343.275 354.781 343.275C355.463 343.275 355.987 343.112 356.353 342.786C356.728 342.45 356.916 342.049 356.916 341.585C356.916 341.199 356.827 340.878 356.649 340.621C356.471 340.354 356.18 340.121 355.774 339.923C355.379 339.716 354.845 339.503 354.172 339.286C353.223 338.999 352.531 338.608 352.096 338.114C351.661 337.62 351.443 337.007 351.443 336.275C351.443 335.781 351.572 335.336 351.829 334.94C352.086 334.545 352.457 334.233 352.941 334.006C353.426 333.778 354.014 333.665 354.706 333.665C355.359 333.665 355.928 333.788 356.412 334.035C356.906 334.273 357.287 334.609 357.554 335.044C357.831 335.479 357.969 335.978 357.969 336.542H356.664C356.664 336.265 356.59 335.993 356.442 335.726C356.293 335.459 356.071 335.237 355.774 335.059C355.478 334.881 355.102 334.792 354.647 334.792C354.103 334.792 353.648 334.925 353.283 335.192C352.917 335.449 352.734 335.805 352.734 336.26C352.734 336.606 352.813 336.898 352.971 337.135C353.139 337.372 353.411 337.59 353.787 337.788C354.163 337.976 354.672 338.178 355.314 338.396C355.918 338.594 356.432 338.826 356.857 339.093C357.292 339.35 357.623 339.671 357.851 340.057C358.088 340.443 358.207 340.922 358.207 341.496C358.207 342.059 358.063 342.559 357.777 342.994C357.49 343.429 357.089 343.775 356.575 344.032C356.061 344.279 355.463 344.403 354.781 344.403ZM360.589 344.225V343.142H362.947V334.925H360.589V333.843H366.551V334.925H364.193V343.142H366.551V344.225H360.589ZM369.037 344.225V343.201L374.406 334.97H369.111V333.843H375.844V334.866L370.461 343.097H375.904V344.225H369.037ZM378.182 344.225V333.843H384.663V334.97H379.428V338.426H384.218V339.553H379.428V343.097H384.663V344.225H378.182Z" fill="white"/>
<path d="M319.059 76.7979V75.819C320.127 74.9686 321.056 74.1875 321.847 73.4756C322.648 72.7637 323.266 72.0765 323.701 71.414C324.136 70.7516 324.354 70.0743 324.354 69.3821C324.354 68.7592 324.176 68.2698 323.82 67.9138C323.474 67.548 323.004 67.365 322.411 67.365C321.956 67.365 321.57 67.4639 321.254 67.6617C320.938 67.8594 320.7 68.1214 320.542 68.4477C320.384 68.774 320.305 69.125 320.305 69.5008H319.074C319.084 68.8185 319.232 68.2352 319.519 67.7507C319.815 67.2563 320.211 66.8805 320.705 66.6235C321.209 66.3664 321.778 66.2379 322.411 66.2379C323.429 66.2379 324.22 66.5196 324.784 67.0832C325.347 67.6468 325.629 68.4032 325.629 69.3525C325.629 69.9754 325.496 70.5736 325.229 71.1471C324.962 71.7107 324.606 72.2545 324.161 72.7785C323.716 73.3026 323.217 73.8068 322.663 74.2913C322.109 74.7758 321.551 75.2405 320.987 75.6855H325.911V76.7979H319.059ZM327.952 76.7979V75.819C329.02 74.9686 329.949 74.1875 330.74 73.4756C331.541 72.7637 332.159 72.0765 332.594 71.414C333.029 70.7516 333.247 70.0743 333.247 69.3821C333.247 68.7592 333.069 68.2698 332.713 67.9138C332.367 67.548 331.897 67.365 331.304 67.365C330.849 67.365 330.463 67.4639 330.147 67.6617C329.831 67.8594 329.593 68.1214 329.435 68.4477C329.277 68.774 329.198 69.125 329.198 69.5008H327.967C327.977 68.8185 328.125 68.2352 328.412 67.7507C328.708 67.2563 329.104 66.8805 329.598 66.6235C330.103 66.3664 330.671 66.2379 331.304 66.2379C332.322 66.2379 333.113 66.5196 333.677 67.0832C334.241 67.6468 334.522 68.4032 334.522 69.3525C334.522 69.9754 334.389 70.5736 334.122 71.1471C333.855 71.7107 333.499 72.2545 333.054 72.7785C332.609 73.3026 332.11 73.8068 331.556 74.2913C331.002 74.7758 330.444 75.2405 329.88 75.6855H334.804V76.7979H327.952ZM340.197 76.8275C339.89 76.8275 339.628 76.7237 339.411 76.5161C339.193 76.3084 339.085 76.0513 339.085 75.7448C339.085 75.4482 339.193 75.1961 339.411 74.9884C339.628 74.7808 339.89 74.677 340.197 74.677C340.503 74.677 340.766 74.7808 340.983 74.9884C341.201 75.1961 341.309 75.4482 341.309 75.7448C341.309 76.0513 341.201 76.3084 340.983 76.5161C340.766 76.7237 340.503 76.8275 340.197 76.8275ZM349.224 76.9758C348.541 76.9758 347.928 76.8522 347.384 76.605C346.851 76.348 346.42 75.9772 346.094 75.4927C345.768 75.0082 345.59 74.4149 345.56 73.7129H346.836C346.855 74.3062 347.073 74.8104 347.488 75.2257C347.904 75.6311 348.482 75.8338 349.224 75.8338C349.945 75.8338 350.504 75.6509 350.9 75.285C351.295 74.9093 351.493 74.4001 351.493 73.7574C351.493 73.3125 351.379 72.9466 351.152 72.6599C350.924 72.3632 350.618 72.1457 350.232 72.0073C349.856 71.859 349.436 71.7848 348.971 71.7848H348.067V70.6576H348.853C349.525 70.6576 350.059 70.5143 350.455 70.2275C350.86 69.9408 351.063 69.5205 351.063 68.9668C351.063 68.5021 350.9 68.1214 350.573 67.8248C350.257 67.5282 349.802 67.3799 349.209 67.3799C348.635 67.3799 348.171 67.543 347.815 67.8693C347.459 68.1857 347.256 68.601 347.206 69.1152H345.961C345.98 68.5516 346.129 68.0572 346.406 67.632C346.682 67.197 347.058 66.8558 347.533 66.6086C348.017 66.3614 348.576 66.2379 349.209 66.2379C349.891 66.2379 350.46 66.3565 350.914 66.5938C351.379 66.8311 351.73 67.1525 351.967 67.5579C352.205 67.9534 352.323 68.3934 352.323 68.8779C352.323 69.392 352.165 69.8468 351.849 70.2423C351.532 70.628 351.157 70.8999 350.722 71.0581V71.1471C351.305 71.325 351.789 71.6266 352.175 72.0518C352.561 72.477 352.753 73.0455 352.753 73.7574C352.753 74.3605 352.61 74.9044 352.323 75.3889C352.046 75.8734 351.641 76.259 351.107 76.5457C350.583 76.8325 349.955 76.9758 349.224 76.9758ZM354.275 76.7979V66.4158H355.61L357.983 71.3547L360.356 66.4158H361.691V76.7979H360.475V68.8185L358.458 73.0158H357.509L355.491 68.8334V76.7979H354.275ZM363.168 76.7979V66.4158H364.503L366.876 71.3547L369.249 66.4158H370.584V76.7979H369.368V68.8185L367.351 73.0158H366.402L364.385 68.8334V76.7979H363.168Z" fill="black"/>
<path d="M504.393 163.314V162.187H507.077V154.401L504.541 154.89V153.941L507.492 152.932H508.323V162.187H511.156V163.314H504.393ZM516.905 163.492C515.995 163.492 515.253 163.275 514.68 162.84C514.116 162.395 513.696 161.802 513.419 161.06C513.152 160.309 513.019 159.463 513.019 158.524C513.019 157.387 513.177 156.388 513.493 155.528C513.81 154.658 514.265 153.981 514.858 153.496C515.461 153.002 516.183 152.754 517.023 152.754C517.686 152.754 518.249 152.883 518.714 153.14C519.189 153.387 519.559 153.728 519.826 154.163C520.103 154.589 520.266 155.068 520.316 155.602H519.144C519.045 155.078 518.808 154.663 518.432 154.356C518.057 154.04 517.587 153.882 517.023 153.882C516.529 153.882 516.074 154.04 515.659 154.356C515.253 154.663 514.917 155.142 514.65 155.795C514.393 156.438 514.245 157.258 514.205 158.257H514.279C514.507 157.832 514.858 157.461 515.332 157.145C515.807 156.828 516.381 156.67 517.053 156.67C517.676 156.67 518.234 156.813 518.729 157.1C519.223 157.387 519.614 157.782 519.901 158.287C520.197 158.791 520.346 159.364 520.346 160.007C520.346 160.64 520.202 161.223 519.915 161.757C519.639 162.281 519.238 162.701 518.714 163.018C518.2 163.334 517.597 163.492 516.905 163.492ZM516.816 162.365C517.498 162.365 518.047 162.148 518.462 161.713C518.877 161.278 519.085 160.734 519.085 160.081C519.085 159.419 518.877 158.875 518.462 158.45C518.047 158.015 517.498 157.797 516.816 157.797C516.361 157.797 515.96 157.896 515.614 158.094C515.278 158.292 515.011 158.563 514.813 158.91C514.626 159.256 514.532 159.646 514.532 160.081C514.532 160.516 514.626 160.907 514.813 161.253C515.011 161.599 515.278 161.871 515.614 162.069C515.96 162.266 516.361 162.365 516.816 162.365ZM525.59 163.344C525.284 163.344 525.022 163.24 524.804 163.033C524.586 162.825 524.478 162.568 524.478 162.261C524.478 161.965 524.586 161.713 524.804 161.505C525.022 161.297 525.284 161.194 525.59 161.194C525.897 161.194 526.159 161.297 526.376 161.505C526.594 161.713 526.702 161.965 526.702 162.261C526.702 162.568 526.594 162.825 526.376 163.033C526.159 163.24 525.897 163.344 525.59 163.344ZM534.483 163.492C533.771 163.492 533.158 163.359 532.644 163.092C532.13 162.825 531.724 162.464 531.428 162.009C531.131 161.554 530.953 161.035 530.894 160.452H532.169C532.258 161.016 532.511 161.475 532.926 161.831C533.341 162.177 533.865 162.35 534.498 162.35C535.24 162.35 535.823 162.113 536.248 161.638C536.673 161.154 536.886 160.546 536.886 159.814C536.886 159.043 536.668 158.44 536.233 158.005C535.798 157.56 535.235 157.337 534.542 157.337C533.989 157.337 533.514 157.466 533.119 157.723C532.733 157.97 532.422 158.287 532.184 158.672H530.998L531.888 152.932H537.435V154.074H532.867L532.318 157.159H532.392C532.619 156.912 532.926 156.695 533.311 156.507C533.707 156.319 534.162 156.225 534.676 156.225C535.358 156.225 535.951 156.373 536.456 156.67C536.97 156.957 537.37 157.372 537.657 157.916C537.944 158.45 538.087 159.078 538.087 159.799C538.087 160.472 537.944 161.09 537.657 161.653C537.38 162.207 536.97 162.652 536.426 162.988C535.892 163.324 535.244 163.492 534.483 163.492ZM539.668 163.314V152.932H541.003L543.376 157.871L545.749 152.932H547.084V163.314H545.868V155.335L543.851 159.532H542.902L540.885 155.35V163.314H539.668ZM548.561 163.314V152.932H549.896L552.269 157.871L554.642 152.932H555.977V163.314H554.761V155.335L552.744 159.532H551.795L549.778 155.35V163.314H548.561Z" fill="black"/>
<path d="M592.146 336.348V335.221H594.83V327.434L592.294 327.924V326.975L595.245 325.966H596.076V335.221H598.909V336.348H592.146ZM602.551 336.348L606.6 327.093H600.935V325.966H607.891V326.96L603.871 336.348H602.551ZM613.343 336.378C613.036 336.378 612.774 336.274 612.557 336.066C612.339 335.859 612.231 335.602 612.231 335.295C612.231 334.998 612.339 334.746 612.557 334.539C612.774 334.331 613.036 334.227 613.343 334.227C613.649 334.227 613.912 334.331 614.129 334.539C614.347 334.746 614.455 334.998 614.455 335.295C614.455 335.602 614.347 335.859 614.129 336.066C613.912 336.274 613.649 336.378 613.343 336.378ZM623.512 336.348V333.945H618.543V332.981L623.274 325.966H624.757V332.818H626.241V333.945H624.757V336.348H623.512ZM619.937 332.818H623.571V327.42L619.937 332.818ZM627.421 336.348V325.966H628.756L631.129 330.905L633.502 325.966H634.837V336.348H633.621V328.369L631.604 332.566H630.655L628.637 328.384V336.348H627.421ZM636.314 336.348V325.966H637.649L640.022 330.905L642.395 325.966H643.73V336.348H642.514V328.369L640.497 332.566H639.548L637.531 328.384V336.348H636.314Z" fill="black"/>
<path d="M504.393 506.91V505.783H507.077V497.996L504.541 498.486V497.537L507.492 496.528H508.323V505.783H511.156V506.91H504.393ZM516.697 507.088C516.005 507.088 515.397 506.96 514.873 506.703C514.359 506.436 513.953 506.075 513.657 505.62C513.36 505.165 513.212 504.646 513.212 504.063C513.212 503.41 513.385 502.856 513.731 502.401C514.077 501.947 514.477 501.63 514.932 501.452V501.378C514.497 501.17 514.146 500.874 513.879 500.488C513.622 500.093 513.493 499.633 513.493 499.109C513.493 498.605 513.622 498.145 513.879 497.729C514.146 497.304 514.522 496.968 515.006 496.721C515.491 496.474 516.054 496.35 516.697 496.35C517.33 496.35 517.883 496.474 518.358 496.721C518.843 496.968 519.218 497.304 519.485 497.729C519.762 498.145 519.901 498.605 519.901 499.109C519.901 499.633 519.767 500.093 519.5 500.488C519.243 500.874 518.897 501.17 518.462 501.378V501.452C518.917 501.63 519.317 501.947 519.663 502.401C520.009 502.856 520.182 503.41 520.182 504.063C520.182 504.646 520.034 505.165 519.737 505.62C519.441 506.075 519.03 506.436 518.506 506.703C517.992 506.96 517.389 507.088 516.697 507.088ZM516.697 500.918C517.31 500.918 517.79 500.76 518.136 500.444C518.492 500.117 518.67 499.697 518.67 499.183C518.67 498.679 518.492 498.268 518.136 497.952C517.79 497.626 517.31 497.463 516.697 497.463C516.084 497.463 515.599 497.626 515.243 497.952C514.897 498.268 514.724 498.679 514.724 499.183C514.724 499.697 514.897 500.117 515.243 500.444C515.599 500.76 516.084 500.918 516.697 500.918ZM516.697 505.961C517.359 505.961 517.893 505.793 518.299 505.457C518.714 505.111 518.922 504.611 518.922 503.959C518.922 503.316 518.714 502.827 518.299 502.49C517.893 502.144 517.359 501.971 516.697 501.971C516.034 501.971 515.496 502.144 515.08 502.49C514.675 502.827 514.472 503.316 514.472 503.959C514.472 504.611 514.675 505.111 515.08 505.457C515.496 505.793 516.034 505.961 516.697 505.961ZM525.59 506.94C525.284 506.94 525.022 506.836 524.804 506.628C524.586 506.421 524.478 506.164 524.478 505.857C524.478 505.56 524.586 505.308 524.804 505.101C525.022 504.893 525.284 504.789 525.59 504.789C525.897 504.789 526.159 504.893 526.376 505.101C526.594 505.308 526.702 505.56 526.702 505.857C526.702 506.164 526.594 506.421 526.376 506.628C526.159 506.836 525.897 506.94 525.59 506.94ZM531.131 506.91V505.931C532.199 505.081 533.129 504.3 533.92 503.588C534.72 502.876 535.338 502.189 535.773 501.526C536.209 500.864 536.426 500.187 536.426 499.494C536.426 498.872 536.248 498.382 535.892 498.026C535.546 497.66 535.076 497.477 534.483 497.477C534.028 497.477 533.643 497.576 533.326 497.774C533.01 497.972 532.773 498.234 532.614 498.56C532.456 498.886 532.377 499.237 532.377 499.613H531.146C531.156 498.931 531.304 498.347 531.591 497.863C531.888 497.369 532.283 496.993 532.778 496.736C533.282 496.479 533.85 496.35 534.483 496.35C535.502 496.35 536.293 496.632 536.856 497.196C537.42 497.759 537.702 498.516 537.702 499.465C537.702 500.088 537.568 500.686 537.301 501.259C537.034 501.823 536.678 502.367 536.233 502.891C535.788 503.415 535.289 503.919 534.735 504.404C534.182 504.888 533.623 505.353 533.059 505.798H537.983V506.91H531.131ZM539.668 506.91V496.528H541.003L543.376 501.467L545.749 496.528H547.084V506.91H545.868V498.931L543.851 503.128H542.902L540.885 498.946V506.91H539.668ZM548.561 506.91V496.528H549.896L552.269 501.467L554.642 496.528H555.977V506.91H554.761V498.931L552.744 503.128H551.795L549.778 498.946V506.91H548.561Z" fill="black"/>
<path d="M328.78 594.663V593.536H331.465V585.749L328.928 586.239V585.29L331.88 584.281H332.71V593.536H335.543V594.663H328.78ZM340.906 594.841C340.274 594.841 339.71 594.717 339.216 594.47C338.731 594.213 338.341 593.872 338.044 593.447C337.757 593.012 337.589 592.527 337.54 591.993H338.741C338.83 592.517 339.062 592.938 339.438 593.254C339.824 593.561 340.313 593.714 340.906 593.714C341.688 593.714 342.325 593.363 342.82 592.661C343.314 591.949 343.596 590.842 343.665 589.339H343.576C343.309 589.803 342.968 590.184 342.553 590.481C342.137 590.777 341.554 590.926 340.803 590.926C340.18 590.926 339.621 590.782 339.127 590.495C338.632 590.209 338.237 589.813 337.94 589.309C337.653 588.805 337.51 588.231 337.51 587.588C337.51 586.956 337.648 586.377 337.925 585.853C338.212 585.319 338.613 584.894 339.127 584.578C339.651 584.261 340.259 584.103 340.951 584.103C342.256 584.103 343.23 584.548 343.873 585.438C344.515 586.328 344.837 587.539 344.837 589.072C344.837 590.209 344.684 591.212 344.377 592.082C344.07 592.943 343.626 593.62 343.042 594.114C342.459 594.599 341.747 594.841 340.906 594.841ZM341.04 589.798C341.732 589.798 342.286 589.581 342.701 589.146C343.116 588.711 343.324 588.167 343.324 587.514C343.324 586.862 343.116 586.318 342.701 585.883C342.286 585.448 341.732 585.23 341.04 585.23C340.348 585.23 339.794 585.448 339.379 585.883C338.973 586.318 338.771 586.862 338.771 587.514C338.771 588.177 338.973 588.726 339.379 589.161C339.794 589.586 340.348 589.798 341.04 589.798ZM346.27 594.663V584.281H347.604L349.978 589.22L352.351 584.281H353.685V594.663H352.469V586.684L350.452 590.881H349.503L347.486 586.699V594.663H346.27ZM355.163 594.663V584.281H356.498L358.871 589.22L361.244 584.281H362.578V594.663H361.362V586.684L359.345 590.881H358.396L356.379 586.699V594.663H355.163Z" fill="black"/>
<path d="M133.606 506.91V505.783H136.291V497.996L133.754 498.486V497.537L136.706 496.528H137.536V505.783H140.369V506.91H133.606ZM145.732 507.088C145.1 507.088 144.536 506.965 144.042 506.717C143.557 506.46 143.167 506.119 142.87 505.694C142.583 505.259 142.415 504.774 142.366 504.24H143.567C143.656 504.765 143.888 505.185 144.264 505.501C144.65 505.808 145.139 505.961 145.732 505.961C146.513 505.961 147.151 505.61 147.646 504.908C148.14 504.196 148.422 503.089 148.491 501.586H148.402C148.135 502.05 147.794 502.431 147.379 502.728C146.963 503.024 146.38 503.173 145.629 503.173C145.006 503.173 144.447 503.029 143.953 502.743C143.458 502.456 143.063 502.06 142.766 501.556C142.479 501.052 142.336 500.478 142.336 499.836C142.336 499.203 142.474 498.624 142.751 498.1C143.038 497.566 143.438 497.141 143.953 496.825C144.477 496.508 145.085 496.35 145.777 496.35C147.082 496.35 148.056 496.795 148.699 497.685C149.341 498.575 149.663 499.786 149.663 501.319C149.663 502.456 149.509 503.459 149.203 504.329C148.896 505.19 148.451 505.867 147.868 506.361C147.285 506.846 146.573 507.088 145.732 507.088ZM145.866 502.045C146.558 502.045 147.112 501.828 147.527 501.393C147.942 500.958 148.15 500.414 148.15 499.761C148.15 499.109 147.942 498.565 147.527 498.13C147.112 497.695 146.558 497.477 145.866 497.477C145.174 497.477 144.62 497.695 144.205 498.13C143.799 498.565 143.597 499.109 143.597 499.761C143.597 500.424 143.799 500.973 144.205 501.408C144.62 501.833 145.174 502.045 145.866 502.045ZM154.803 506.94C154.497 506.94 154.235 506.836 154.017 506.628C153.8 506.421 153.691 506.164 153.691 505.857C153.691 505.56 153.8 505.308 154.017 505.101C154.235 504.893 154.497 504.789 154.803 504.789C155.11 504.789 155.372 504.893 155.589 505.101C155.807 505.308 155.916 505.56 155.916 505.857C155.916 506.164 155.807 506.421 155.589 506.628C155.372 506.836 155.11 506.94 154.803 506.94ZM163.519 507.088C162.886 507.088 162.322 506.965 161.828 506.717C161.343 506.46 160.953 506.119 160.656 505.694C160.369 505.259 160.201 504.774 160.152 504.24H161.353C161.442 504.765 161.674 505.185 162.05 505.501C162.436 505.808 162.925 505.961 163.519 505.961C164.3 505.961 164.937 505.61 165.432 504.908C165.926 504.196 166.208 503.089 166.277 501.586H166.188C165.921 502.05 165.58 502.431 165.165 502.728C164.75 503.024 164.166 503.173 163.415 503.173C162.792 503.173 162.233 503.029 161.739 502.743C161.244 502.456 160.849 502.06 160.552 501.556C160.265 501.052 160.122 500.478 160.122 499.836C160.122 499.203 160.261 498.624 160.537 498.1C160.824 497.566 161.225 497.141 161.739 496.825C162.263 496.508 162.871 496.35 163.563 496.35C164.868 496.35 165.842 496.795 166.485 497.685C167.128 498.575 167.449 499.786 167.449 501.319C167.449 502.456 167.296 503.459 166.989 504.329C166.683 505.19 166.238 505.867 165.654 506.361C165.071 506.846 164.359 507.088 163.519 507.088ZM163.652 502.045C164.344 502.045 164.898 501.828 165.313 501.393C165.728 500.958 165.936 500.414 165.936 499.761C165.936 499.109 165.728 498.565 165.313 498.13C164.898 497.695 164.344 497.477 163.652 497.477C162.96 497.477 162.406 497.695 161.991 498.13C161.585 498.565 161.383 499.109 161.383 499.761C161.383 500.424 161.585 500.973 161.991 501.408C162.406 501.833 162.96 502.045 163.652 502.045ZM168.882 506.91V496.528H170.217L172.59 501.467L174.963 496.528H176.297V506.91H175.081V498.931L173.064 503.128H172.115L170.098 498.946V506.91H168.882ZM177.775 506.91V496.528H179.11L181.483 501.467L183.856 496.528H185.191V506.91H183.974V498.931L181.957 503.128H181.008L178.991 498.946V506.91H177.775Z" fill="black"/>
<path d="M44.6766 336.348V335.369C45.7444 334.519 46.6739 333.738 47.4649 333.026C48.2658 332.314 48.8838 331.627 49.3188 330.964C49.7539 330.302 49.9714 329.625 49.9714 328.932C49.9714 328.309 49.7934 327.82 49.4375 327.464C49.0914 327.098 48.6217 326.915 48.0285 326.915C47.5737 326.915 47.188 327.014 46.8716 327.212C46.5552 327.41 46.3179 327.672 46.1597 327.998C46.0015 328.324 45.9224 328.675 45.9224 329.051H44.6914C44.7013 328.369 44.8496 327.785 45.1364 327.301C45.433 326.807 45.8285 326.431 46.3229 326.174C46.8271 325.917 47.3957 325.788 48.0285 325.788C49.0469 325.788 49.8379 326.07 50.4015 326.634C50.9651 327.197 51.2469 327.954 51.2469 328.903C51.2469 329.526 51.1134 330.124 50.8465 330.697C50.5795 331.261 50.2235 331.805 49.7786 332.329C49.3337 332.853 48.8343 333.357 48.2806 333.842C47.7269 334.326 47.1683 334.791 46.6047 335.236H51.5287V336.348H44.6766ZM56.9216 336.526C56.1404 336.526 55.4483 336.309 54.8452 335.874C54.2519 335.438 53.7872 334.821 53.451 334.02C53.1247 333.219 52.9616 332.265 52.9616 331.157C52.9616 330.05 53.1247 329.096 53.451 328.295C53.7872 327.494 54.2519 326.876 54.8452 326.441C55.4483 326.006 56.1404 325.788 56.9216 325.788C57.7126 325.788 58.4047 326.006 58.998 326.441C59.5912 326.876 60.051 327.494 60.3773 328.295C60.7135 329.096 60.8816 330.05 60.8816 331.157C60.8816 332.265 60.7135 333.219 60.3773 334.02C60.051 334.821 59.5912 335.438 58.998 335.874C58.4047 336.309 57.7126 336.526 56.9216 336.526ZM54.2371 331.157C54.2371 331.829 54.3063 332.438 54.4447 332.981C54.593 333.515 54.7957 333.965 55.0528 334.331L57.9301 327.197C57.6236 327.029 57.2874 326.945 56.9216 326.945C56.3975 326.945 55.9328 327.118 55.5274 327.464C55.122 327.8 54.8056 328.285 54.5782 328.918C54.3508 329.541 54.2371 330.287 54.2371 331.157ZM56.9216 335.384C57.4456 335.384 57.9103 335.216 58.3157 334.88C58.7211 334.534 59.0375 334.044 59.2649 333.412C59.4924 332.779 59.6061 332.027 59.6061 331.157C59.6061 330.485 59.5319 329.882 59.3836 329.348C59.2452 328.804 59.0474 328.349 58.7903 327.983L55.8982 335.132C56.2146 335.3 56.5557 335.384 56.9216 335.384ZM65.8147 336.378C65.5081 336.378 65.2461 336.274 65.0286 336.066C64.8111 335.859 64.7023 335.602 64.7023 335.295C64.7023 334.998 64.8111 334.746 65.0286 334.539C65.2461 334.331 65.5081 334.227 65.8147 334.227C66.1212 334.227 66.3832 334.331 66.6007 334.539C66.8183 334.746 66.927 334.998 66.927 335.295C66.927 335.602 66.8183 335.859 66.6007 336.066C66.3832 336.274 66.1212 336.378 65.8147 336.378ZM72.8093 336.348L76.8583 327.093H71.1927V325.966H78.1486V326.96L74.1293 336.348H72.8093ZM79.893 336.348V325.966H81.2278L83.6008 330.905L85.9739 325.966H87.3087V336.348H86.0925V328.369L84.0754 332.566H83.1262L81.1091 328.384V336.348H79.893ZM88.786 336.348V325.966H90.1209L92.4939 330.905L94.8669 325.966H96.2018V336.348H94.9856V328.369L92.9685 332.566H92.0193L90.0022 328.384V336.348H88.786Z" fill="black"/>
<path d="M133.665 163.314V162.336C134.733 161.485 135.663 160.704 136.454 159.992C137.255 159.28 137.873 158.593 138.308 157.931C138.743 157.268 138.96 156.591 138.96 155.899C138.96 155.276 138.782 154.786 138.426 154.43C138.08 154.065 137.611 153.882 137.017 153.882C136.562 153.882 136.177 153.981 135.86 154.178C135.544 154.376 135.307 154.638 135.148 154.964C134.99 155.291 134.911 155.642 134.911 156.017H133.68C133.69 155.335 133.838 154.752 134.125 154.267C134.422 153.773 134.817 153.397 135.312 153.14C135.816 152.883 136.384 152.754 137.017 152.754C138.036 152.754 138.827 153.036 139.39 153.6C139.954 154.163 140.236 154.92 140.236 155.869C140.236 156.492 140.102 157.09 139.835 157.664C139.568 158.227 139.212 158.771 138.767 159.295C138.322 159.819 137.823 160.323 137.269 160.808C136.716 161.292 136.157 161.757 135.593 162.202H140.517V163.314H133.665ZM142.499 163.314V162.187H145.184V154.401L142.647 154.89V153.941L145.599 152.932H146.429V162.187H149.262V163.314H142.499ZM154.803 163.344C154.497 163.344 154.235 163.24 154.017 163.033C153.8 162.825 153.691 162.568 153.691 162.261C153.691 161.965 153.8 161.713 154.017 161.505C154.235 161.297 154.497 161.194 154.803 161.194C155.11 161.194 155.372 161.297 155.589 161.505C155.807 161.713 155.916 161.965 155.916 162.261C155.916 162.568 155.807 162.825 155.589 163.033C155.372 163.24 155.11 163.344 154.803 163.344ZM163.697 163.492C162.985 163.492 162.372 163.359 161.857 163.092C161.343 162.825 160.938 162.464 160.641 162.009C160.345 161.554 160.167 161.035 160.107 160.452H161.383C161.472 161.016 161.724 161.475 162.139 161.831C162.554 162.177 163.079 162.35 163.711 162.35C164.453 162.35 165.036 162.113 165.461 161.638C165.887 161.154 166.099 160.546 166.099 159.814C166.099 159.043 165.882 158.44 165.447 158.005C165.012 157.56 164.448 157.337 163.756 157.337C163.202 157.337 162.728 157.466 162.332 157.723C161.946 157.97 161.635 158.287 161.398 158.672H160.211L161.101 152.932H166.648V154.074H162.08L161.531 157.159H161.605C161.833 156.912 162.139 156.695 162.525 156.507C162.92 156.319 163.375 156.225 163.889 156.225C164.572 156.225 165.165 156.373 165.669 156.67C166.183 156.957 166.584 157.372 166.87 157.916C167.157 158.45 167.301 159.078 167.301 159.799C167.301 160.472 167.157 161.09 166.87 161.653C166.594 162.207 166.183 162.652 165.639 162.988C165.105 163.324 164.458 163.492 163.697 163.492ZM168.882 163.314V152.932H170.217L172.59 157.871L174.963 152.932H176.297V163.314H175.081V155.335L173.064 159.532H172.115L170.098 155.35V163.314H168.882ZM177.775 163.314V152.932H179.11L181.483 157.871L183.856 152.932H185.191V163.314H183.974V155.335L181.957 159.532H181.008L178.991 155.35V163.314H177.775Z" fill="black"/>
</svg>
